<svg width="60" height="61" viewBox="0 0 60 61" fill="none" xmlns="http://www.w3.org/2000/svg">
<g filter="url(#filter0_dd_975_152)">
<path d="M42.1226 22.8592C41.5314 23.7753 40.791 24.5466 39.931 25.2035C39.7579 25.3361 39.7041 25.4627 39.7101 25.6796C39.7698 28.0119 39.2682 30.2236 38.2709 32.3268C37.0766 34.8338 35.3389 36.8648 32.9861 38.3352C31.314 39.3778 29.4987 39.9985 27.5519 40.2637C26.1785 40.4505 24.811 40.4505 23.4435 40.2516C21.4609 39.9624 19.6216 39.2874 17.9257 38.2026C17.9138 38.1966 17.9078 38.1785 17.8779 38.1484C20.5711 38.3955 22.9896 37.7326 25.1991 36.0572C24.8229 36.0271 24.5064 36.003 24.2078 35.9307C22.494 35.4968 21.3056 34.4482 20.6308 32.8029C20.5293 32.5498 20.5472 32.5378 20.8219 32.5799C21.4191 32.6643 22.0103 32.6282 22.5955 32.5016C22.6313 32.4956 22.6672 32.4715 22.7149 32.4534C19.8486 31.7302 18.6901 29.1509 18.8155 27.4635C19.4903 27.807 20.1949 28.036 21.019 28.0541C19.9262 27.2525 19.2335 26.2461 18.9528 24.9685C18.6722 23.6969 18.8752 22.4976 19.4903 21.3586C19.5858 21.3827 19.6157 21.449 19.6575 21.5033C21.7475 23.9862 24.375 25.5832 27.5221 26.3004C28.2207 26.457 28.9314 26.5354 29.642 26.5957C29.8211 26.6077 29.8092 26.5474 29.7853 26.4088C29.5046 24.5286 30.0062 22.9074 31.4335 21.6419C32.586 20.6174 33.9594 20.2377 35.4822 20.4667C36.5451 20.6294 37.4528 21.0995 38.2172 21.8649C38.3127 21.9613 38.3904 21.9854 38.5277 21.9553C39.4951 21.7383 40.4147 21.3948 41.2806 20.9127C41.3403 20.8765 41.406 20.8524 41.5135 20.7922C41.1313 21.9673 40.4267 22.8291 39.3936 23.5282C39.7638 23.5161 40.0565 23.4498 40.3431 23.3775C40.6357 23.3052 40.9283 23.2269 41.2149 23.1365C41.5075 23.04 41.8002 22.9316 42.0868 22.8231C42.0987 22.8351 42.1107 22.8472 42.1226 22.8592Z" fill="black"/>
<path d="M42.1226 22.8592C41.5314 23.7753 40.791 24.5466 39.931 25.2035C39.7579 25.3361 39.7041 25.4627 39.7101 25.6796C39.7698 28.0119 39.2682 30.2236 38.2709 32.3268C37.0766 34.8338 35.3389 36.8648 32.9861 38.3352C31.314 39.3778 29.4987 39.9985 27.5519 40.2637C26.1785 40.4505 24.811 40.4505 23.4435 40.2516C21.4609 39.9624 19.6216 39.2874 17.9257 38.2026C17.9138 38.1966 17.9078 38.1785 17.8779 38.1484C20.5711 38.3955 22.9896 37.7326 25.1991 36.0572C24.8229 36.0271 24.5064 36.003 24.2078 35.9307C22.494 35.4968 21.3056 34.4482 20.6308 32.8029C20.5293 32.5498 20.5472 32.5378 20.8219 32.5799C21.4191 32.6643 22.0103 32.6282 22.5955 32.5016C22.6313 32.4956 22.6672 32.4715 22.7149 32.4534C19.8486 31.7302 18.6901 29.1509 18.8155 27.4635C19.4903 27.807 20.1949 28.036 21.019 28.0541C19.9262 27.2525 19.2335 26.2461 18.9528 24.9685C18.6722 23.6969 18.8752 22.4976 19.4903 21.3586C19.5858 21.3827 19.6157 21.449 19.6575 21.5033C21.7475 23.9862 24.375 25.5832 27.5221 26.3004C28.2207 26.457 28.9314 26.5354 29.642 26.5957C29.8211 26.6077 29.8092 26.5474 29.7853 26.4088C29.5046 24.5286 30.0062 22.9074 31.4335 21.6419C32.586 20.6174 33.9594 20.2377 35.4822 20.4667C36.5451 20.6294 37.4528 21.0995 38.2172 21.8649C38.3127 21.9613 38.3904 21.9854 38.5277 21.9553C39.4951 21.7383 40.4147 21.3948 41.2806 20.9127C41.3403 20.8765 41.406 20.8524 41.5135 20.7922C41.1313 21.9673 40.4267 22.8291 39.3936 23.5282C39.7638 23.5161 40.0565 23.4498 40.3431 23.3775C40.6357 23.3052 40.9283 23.2269 41.2149 23.1365C41.5075 23.04 41.8002 22.9316 42.0868 22.8231C42.0987 22.8351 42.1107 22.8472 42.1226 22.8592Z" fill="black" fill-opacity="0.2"/>
</g>
<defs>
<filter id="filter0_dd_975_152" x="-8" y="-7.59766" width="76" height="76" filterUnits="userSpaceOnUse" color-interpolation-filters="sRGB">
<feFlood flood-opacity="0" result="BackgroundImageFix"/>
<feColorMatrix in="SourceAlpha" type="matrix" values="0 0 0 0 0 0 0 0 0 0 0 0 0 0 0 0 0 0 127 0" result="hardAlpha"/>
<feOffset dx="3" dy="3"/>
<feGaussianBlur stdDeviation="2.5"/>
<feComposite in2="hardAlpha" operator="out"/>
<feColorMatrix type="matrix" values="0 0 0 0 0.411765 0 0 0 0 0.505882 0 0 0 0 0.635294 0 0 0 0.16 0"/>
<feBlend mode="normal" in2="BackgroundImageFix" result="effect1_dropShadow_975_152"/>
<feColorMatrix in="SourceAlpha" type="matrix" values="0 0 0 0 0 0 0 0 0 0 0 0 0 0 0 0 0 0 127 0" result="hardAlpha"/>
<feOffset dx="-4" dy="-4"/>
<feGaussianBlur stdDeviation="2"/>
<feComposite in2="hardAlpha" operator="out"/>
<feColorMatrix type="matrix" values="0 0 0 0 1 0 0 0 0 1 0 0 0 0 1 0 0 0 0.25 0"/>
<feBlend mode="normal" in2="effect1_dropShadow_975_152" result="effect2_dropShadow_975_152"/>
<feBlend mode="normal" in="SourceGraphic" in2="effect2_dropShadow_975_152" result="shape"/>
</filter>
</defs>
</svg>
